<?xml version="1.0" encoding="UTF-8" standalone="no"?>
<svg
   width="200.00002mm"
   height="200mm"
   viewBox="0 0 200.00002 200"
   version="1.1"
   id="svg8"
   inkscape:version="1.3.2 (091e20e, 2023-11-25, custom)"
   sodipodi:docname="237 - BRADESCO.svg"
   xmlns:inkscape="http://www.inkscape.org/namespaces/inkscape"
   xmlns:sodipodi="http://sodipodi.sourceforge.net/DTD/sodipodi-0.dtd"
   xmlns="http://www.w3.org/2000/svg"
   xmlns:svg="http://www.w3.org/2000/svg"
   xmlns:rdf="http://www.w3.org/1999/02/22-rdf-syntax-ns#"
   xmlns:cc="http://creativecommons.org/ns#"
   xmlns:dc="http://purl.org/dc/elements/1.1/">
  <defs
     id="defs2" />
  <sodipodi:namedview
     id="base"
     pagecolor="#ffffff"
     bordercolor="#666666"
     borderopacity="1.0"
     inkscape:pageopacity="0.0"
     inkscape:pageshadow="2"
     inkscape:zoom="0.35"
     inkscape:cx="-20"
     inkscape:cy="308.57143"
     inkscape:document-units="mm"
     inkscape:current-layer="g1103"
     inkscape:document-rotation="0"
     showgrid="false"
     inkscape:window-width="1344"
     inkscape:window-height="728"
     inkscape:window-x="0"
     inkscape:window-y="0"
     inkscape:window-maximized="0"
     inkscape:showpageshadow="2"
     inkscape:pagecheckerboard="0"
     inkscape:deskcolor="#d1d1d1" />
  <metadata
     id="metadata5">
    <rdf:RDF>
      <cc:Work
         rdf:about="">
        <dc:format>image/svg+xml</dc:format>
        <dc:type
           rdf:resource="http://purl.org/dc/dcmitype/StillImage" />
      </cc:Work>
    </rdf:RDF>
  </metadata>
  <g
     inkscape:label="Logos"
     inkscape:groupmode="layer"
     id="layer1"
     transform="translate(0.00661916,0.04172821)">
    <g
       id="g1103">
      <rect
         style="font-variation-settings:normal;vector-effect:none;fill:#ec182b;fill-opacity:1;fill-rule:evenodd;stroke:#ffffff;stroke-width:0.0276626;stroke-linecap:butt;stroke-linejoin:miter;stroke-miterlimit:4;stroke-dasharray:none;stroke-dashoffset:0;stroke-opacity:1;stop-color:#000000"
         id="rect106-7"
         width="199.97235"
         height="199.97234"
         x="0.0072121411"
         y="-0.027896911" />
      <g
         id="g1087"
         style="opacity:1"
         transform="matrix(2.0599765,0,0,2.0599765,-106.23498,-26.193292)">
        <path
           id="path30-9-0"
           style="fill:#ffffff;fill-opacity:1;fill-rule:nonzero;stroke:none;stroke-width:0.021676"
           d="m 97.778113,37.286948 c -5.083882,0 -10.642468,0.4669 -16.132991,1.400701 5.558369,-7.136379 14.370518,-11.738405 24.199488,-11.738405 7.25321,0 14.50621,2.734641 19.38677,6.803004 0.88134,0.733514 1.55915,0.800276 2.23718,0.133307 0.6778,-0.66697 0.60996,-1.333939 -0.1357,-2.200978 C 120.961,24.281583 111.60651,19.279419 100.55741,19.479488 86.119042,19.746319 73.849793,28.883391 69.172335,41.55538 c -4.270382,1.333939 -8.20197,2.934493 -11.65907,4.86864 -0.948974,0.533662 -1.287986,1.200632 -0.948974,2.000908 0.338795,0.733515 1.016819,1.000346 1.965793,0.733515 2.982614,-0.867039 6.032856,-1.600553 9.219007,-2.267523 -0.339012,1.667316 -0.542333,3.401393 -0.542333,5.202233 -0.271166,11.671426 5.965011,22.742644 15.590659,28.811916 0.948974,0.600207 1.762473,0.600207 2.304806,-0.133307 0.542332,-0.733732 0.474486,-1.400702 -0.339013,-2.134433 -6.100701,-5.468847 -9.489956,-13.605573 -9.489956,-21.675537 0,-4.068362 0.813282,-8.003201 2.372435,-11.538118 3.185934,-0.266832 6.643034,-0.466901 10.43893,-0.466901 24.674191,0 45.484641,8.136726 45.484641,18.807806 0,5.402302 -6.84636,10.804387 -14.98092,14.406066 -1.96557,0.867039 -2.16889,1.467247 -1.89794,2.334285 0.27116,0.800277 1.15251,1.067108 2.16911,0.733515 14.23526,-4.66857 25.0132,-12.338395 25.0132,-21.608774 0,-12.605227 -20.33574,-22.342723 -46.094597,-22.342723"
           inkscape:connector-curvature="0" />
        <path
           id="path32-1-2"
           style="fill:#ffffff;fill-opacity:1;fill-rule:nonzero;stroke:none;stroke-width:0.021676"
           d="M 109.5603,101.40187 V 74.396425 c 0,-1.03481 -0.99926,-1.412406 -1.82316,-0.943121 l -6.86543,3.951096 v 25.29998 l 7.37481,0.01 c 0.72528,8.7e-4 1.31378,-0.58677 1.31378,-1.31226"
           inkscape:connector-curvature="0" />
        <path
           id="path34-5-7"
           style="fill:#ffffff;fill-opacity:1;fill-rule:nonzero;stroke:none;stroke-width:0.021676"
           d="M 92.514971,83.192967 V 101.8679 c 0,0.46733 0.378896,0.84623 0.84623,0.84623 h 5.194863 V 78.735304 l -5.185976,2.986082 c -0.528677,0.301296 -0.855117,0.775783 -0.855117,1.471581"
           inkscape:connector-curvature="0" />
      </g>
    </g>
  </g>
</svg>
