<svg width="512" height="512" viewBox="0 0 512 512" fill="none" xmlns="http://www.w3.org/2000/svg">
<rect width="512" height="512" fill="white"/>
<rect width="512" height="512" fill="#FF7A00"/>
<path d="M83.3398 186H88.3848C94.7675 186 99.6596 190.434 99.6214 196.991V203.13C99.6214 209.649 94.7675 214.121 88.3848 214.121H83.3398C77.1482 214.121 72.1032 209.649 72.1032 203.13V196.991C72.1032 190.472 77.1482 186 83.3398 186Z" fill="white"/>
<path d="M142.389 242.508C147.281 233.412 157.218 225.226 172.965 225.226C197.005 225.226 206.56 240.272 206.522 261.874V323.612H182.329V268.014C182.329 253.309 177.092 245.123 164.136 245.123C151.218 245.123 142.58 254.408 142.58 270.402V323.574H118.196V227.613H141.625L142.389 242.508Z" fill="white"/>
<path d="M58 247.359H74.1287V323.612H98.5128V227.651H58V247.359Z" fill="white"/>
<path fill-rule="evenodd" clip-rule="evenodd" d="M282.885 274.305C282.885 245.123 301.842 225.226 332.226 225.226C364.636 225.226 380.765 248.117 379.122 281.355H307.842C309.141 298.447 317.588 307.202 332.226 307.202C344.609 307.202 351.527 301.441 354.355 293.255H378.548C373.847 313.342 357.184 326 332.226 326C301.459 326 282.885 306.292 282.885 276.731V274.305ZM331.997 243.986C318.505 243.986 310.632 250.884 308.377 264.831H354.126C352.827 251.793 345.679 243.986 331.997 243.986Z" fill="white"/>
<path d="M247.99 294.202V247.359H273.482V227.651H247.99V195.096H223.606V296.628C223.606 315.957 234.307 326 256.819 326C262.437 326 269.393 325.053 273.903 323.574V304.776C271.266 305.724 266.794 306.823 262.284 306.823C251.544 306.861 247.99 302.957 247.99 294.202Z" fill="white"/>
<path d="M418.641 246.26C423.342 234.17 433.279 225.984 447.343 225.984C449.063 225.984 451.471 226.173 453 226.552V247.738C451.28 247.548 448.49 247.359 446.044 247.359C427.469 247.359 419.023 257.592 419.023 276.011V323.612H394.639V227.651H418.067L418.641 246.26Z" fill="white"/>
</svg>
