<?xml version="1.0" encoding="UTF-8" standalone="no"?>
<svg
   width="2500"
   height="2500"
   viewBox="0 0 192.756 192.756"
   version="1.1"
   id="svg3"
   sodipodi:docname="341 - ITAU.svg"
   inkscape:version="1.3.2 (091e20e, 2023-11-25, custom)"
   xmlns:inkscape="http://www.inkscape.org/namespaces/inkscape"
   xmlns:sodipodi="http://sodipodi.sourceforge.net/DTD/sodipodi-0.dtd"
   xmlns="http://www.w3.org/2000/svg"
   xmlns:svg="http://www.w3.org/2000/svg">
  <defs
     id="defs3" />
  <sodipodi:namedview
     id="namedview3"
     pagecolor="#ffffff"
     bordercolor="#000000"
     borderopacity="0.25"
     inkscape:showpageshadow="2"
     inkscape:pageopacity="0.0"
     inkscape:pagecheckerboard="0"
     inkscape:deskcolor="#d1d1d1"
     inkscape:zoom="0.182"
     inkscape:cx="1164.8352"
     inkscape:cy="1513.7363"
     inkscape:window-width="1440"
     inkscape:window-height="837"
     inkscape:window-x="1352"
     inkscape:window-y="-8"
     inkscape:window-maximized="1"
     inkscape:current-layer="g3" />
  <g
     fill-rule="evenodd"
     clip-rule="evenodd"
     id="g3"
     transform="translate(-0.14978036)">
    <rect
       style="fill:#e55800;fill-opacity:1;stroke-width:1.0965"
       id="rect3"
       width="192.756"
       height="192.756"
       x="0.14978036"
       y="1.4315627e-06" />
    <path
       d="m 37.828,8.602 h 117.1 c 8.156,0 14.953,2.913 20.586,8.544 5.826,5.632 8.738,12.623 8.738,20.779 v 117.1 c 0,7.962 -2.912,14.953 -8.738,20.585 -5.633,5.632 -12.43,8.544 -20.586,8.544 h -117.1 c -8.156,0 -15.147,-2.912 -20.779,-8.544 -5.632,-5.632 -8.545,-12.623 -8.545,-20.585 v -117.1 c 0,-8.157 2.913,-15.147 8.545,-20.779 5.632,-5.631 12.623,-8.544 20.779,-8.544 z"
       fill="#33348e"
       id="path2" />
    <path
       d="m 142.693,108.225 h 9.516 l 11.652,-11.847 h -12.816 z m -3.494,2.913 h -13.596 v 25.438 c 0,6.797 1.748,11.847 5.051,15.147 2.912,2.914 6.797,4.273 11.65,4.273 6.797,0 11.846,-2.72 14.953,-7.963 h 0.195 v 6.991 h 12.039 v -43.888 h -13.594 v 25.634 c 0,1.165 -0.193,2.136 -0.387,2.718 -1.555,3.69 -4.273,5.633 -8.352,5.633 -5.244,0 -7.961,-3.69 -7.961,-10.876 v -23.107 z m -34.955,14.564 c -8.934,0 -15.731,1.358 -20.392,4.271 -4.855,2.913 -7.38,7.186 -7.38,12.817 0,3.495 1.36,6.603 3.884,9.128 2.913,2.719 6.603,4.078 11.069,4.078 6.019,0 10.486,-1.942 13.593,-5.633 h 0.389 v 4.661 h 12.428 v -25.828 c 0,-5.826 -1.553,-10.292 -4.467,-13.594 -3.494,-3.689 -8.738,-5.632 -15.729,-5.632 -7.186,0 -13.206,1.359 -17.866,4.272 l 2.524,8.545 c 3.884,-2.33 8.156,-3.495 13.011,-3.495 6.02,0 8.934,1.941 8.934,6.02 v 0.39 z M 71.036,111.138 H 62.685 V 96.378 H 49.48 v 14.76 h -6.215 v 10.098 h 6.215 v 17.672 c 0,6.021 1.165,10.486 3.689,13.012 2.524,2.719 6.214,4.078 10.681,4.078 2.913,0 5.243,-0.389 7.379,-1.166 L 71.035,144.54 c -0.389,0.389 -1.165,0.583 -2.525,0.583 -2.135,0 -3.689,-0.777 -4.66,-2.331 -0.777,-1.165 -1.165,-3.107 -1.165,-6.02 v -15.536 h 8.351 z m 18.06,30.488 c 0,-5.243 5.243,-7.574 15.535,-7.38 v 4.661 l -0.193,2.524 c -0.582,1.748 -1.748,3.107 -3.303,4.078 -1.553,1.359 -3.494,1.942 -5.63,1.942 -4.273,0.001 -6.409,-1.941 -6.409,-5.825 z M 23.069,96.378 v 58.647 H 36.857 V 96.378 Z"
       fill="#fff22d"
       id="path3" />
  </g>
</svg>
