<?xml version="1.0" encoding="UTF-8" standalone="no"?>
<svg
   viewBox="0 0 1000 1000"
   version="1.1"
   id="svg2"
   sodipodi:docname="260 - NUBANK.svg"
   width="1000"
   height="1000"
   inkscape:version="1.3.2 (091e20e, 2023-11-25, custom)"
   xmlns:inkscape="http://www.inkscape.org/namespaces/inkscape"
   xmlns:sodipodi="http://sodipodi.sourceforge.net/DTD/sodipodi-0.dtd"
   xmlns="http://www.w3.org/2000/svg"
   xmlns:svg="http://www.w3.org/2000/svg">
  <sodipodi:namedview
     id="namedview2"
     pagecolor="#ffffff"
     bordercolor="#000000"
     borderopacity="0.25"
     inkscape:showpageshadow="2"
     inkscape:pageopacity="0.0"
     inkscape:pagecheckerboard="0"
     inkscape:deskcolor="#d1d1d1"
     inkscape:zoom="0.45539123"
     inkscape:cx="720.2598"
     inkscape:cy="648.8926"
     inkscape:window-width="1440"
     inkscape:window-height="837"
     inkscape:window-x="1352"
     inkscape:window-y="-8"
     inkscape:window-maximized="1"
     inkscape:current-layer="svg2" />
  <defs
     id="defs1">
    <style
       id="style1">.a{fill:#820ad1;}.b{fill:#fff;}</style>
  </defs>
  <rect
     class="a"
     width="1000"
     height="1000"
     id="rect1"
     x="0"
     y="0"
     style="stroke-width:1.00235" />
  <path
     class="b"
     d="m 302.85,359.25 c 19.51,-20.59 45.4,-32.62 75.81,-32.62 59.24,0 98.51,43.45 106,108.55 2.44,21.15 2.41,50.95 2.39,85.48 V 660.75 H 405.61 V 565.1 c 0,0 -0.17,-81.87 -0.66,-97.17 -2.19,-66.64 -41.46,-108.52 -102.11,-108.56 -18.29,19.42 -28.1,43.17 -29.54,79.48 -0.2,5.06 -0.15,23 -0.09,46.68 0,12.26 0.07,26.05 0.09,40.37 0.06,62.35 0,134.87 0,134.87 H 191.83 V 513.55 c 0,-5 -0.1,-10.13 -0.19,-15.24 -0.18,-10.27 -0.37,-20.62 0.19,-30.88 0.92,-17.08 3.86,-33.88 11.8,-49.49 18.16,-35.75 55.39,-58.77 95.08,-58.77 1.38,0 2.77,0 4.14,0.08 z"
     id="path1" />
  <path
     class="b"
     d="m 808.17,527.88 c 0.56,-10.25 0.37,-20.61 0.19,-30.88 -0.09,-5.11 -0.19,-10.19 -0.19,-15.24 V 334.54 h -81.46 c 0,0 -0.07,72.52 0,134.87 0,14.32 0,28.11 0.08,40.37 0.06,23.66 0.11,41.62 -0.08,46.68 -1.45,36.31 -11.26,60.06 -29.55,79.48 -60.65,0 -99.92,-41.91 -102.1,-108.55 -0.5,-15.3 -0.71,-53.27 -0.71,-97.25 v -95.66 l -81.41,0.08 v 140.09 c 0,34.53 -0.05,64.33 2.39,85.48 7.5,65.1 46.77,108.55 106,108.55 30.41,0 56.29,-12 75.81,-32.62 1.37,0.05 2.75,0.08 4.14,0.08 39.69,0 76.91,-23 95.08,-58.77 7.94,-15.61 10.88,-32.41 11.8,-49.5 z"
     id="path2" />
</svg>
